PathFileType	4	(X/Y/Z)	jog.trc
DataRate	CameraRate	NumFrames	NumMarkers	Units	OrigDataRate	OrigDataStartFrame	OrigNumFrames
250.000000	250.000000	4	51	mm	250.000000	313	837
Frame#	Time	C7			RSH			LSH			MAN			T7			LARM			LELB			LFOREARM			LWR			RARM			RELB			RFOREARM			RWR			RASI			LASI			SACR			P1			P2			P3			LTHLP			LTHLD			LTHAP			LTHAD			LLEPI			LPAT			LTIAP			LTIAD			LTILAT			LLMAL			LHEEL			LMFS			LMFL			LP1MT			LTOE			LP5MT			RTHLP			RTHLD			RTHAP			RTHAD			RLEPI			RPAT			RTIAP			RTIAD			RTILAT			RLMAL			RHEEL			RMFS			RMFL			RP1MT			RTOE			RP5MT			
		X1	Y1	Z1	X2	Y2	Z2	X3	Y3	Z3	X4	Y4	Z4	X5	Y5	Z5	X6	Y6	Z6	X7	Y7	Z7	X8	Y8	Z8	X9	Y9	Z9	X10	Y10	Z10	X11	Y11	Z11	X12	Y12	Z12	X13	Y13	Z13	X14	Y14	Z14	X15	Y15	Z15	X16	Y16	Z16	X17	Y17	Z17	X18	Y18	Z18	X19	Y19	Z19	X20	Y20	Z20	X21	Y21	Z21	X22	Y22	Z22	X23	Y23	Z23	X24	Y24	Z24	X25	Y25	Z25	X26	Y26	Z26	X27	Y27	Z27	X28	Y28	Z28	X29	Y29	Z29	X30	Y30	Z30	X31	Y31	Z31	X32	Y32	Z32	X33	Y33	Z33	X34	Y34	Z34	X35	Y35	Z35	X36	Y36	Z36	X37	Y37	Z37	X38	Y38	Z38	X39	Y39	Z39	X40	Y40	Z40	X41	Y41	Z41	X42	Y42	Z42	X43	Y43	Z43	X44	Y44	Z44	X45	Y45	Z45	X46	Y46	Z46	X47	Y47	Z47	X48	Y48	Z48	X49	Y49	Z49	X50	Y50	Z50	X51	Y51	Z51	

314	1.252	-1006.76904296875	1562.983642578126	244.0015716552736	-952.6821899414067	1551.612304687501	400.6232604980471	-1016.556640625	1548.651000976563	84.29780578613284	-876.1445312500005	1465.489868164063	217.7566986083986	-1080.381469726563	1379.088623046875	253.0610809326173	-1141.748168945313	1426.404174804688	-2.309056758880616	-1244.63720703125	1334.016235351563	-32.308406829834	-1204.987915039063	1189.646484375	-29.89070510864259	-1182.538330078125	1063.062866210938	-22.49464225769044	-966.6161499023442	1382.469970703125	510.1454772949221	-985.7604370117192	1253.36962890625	565.1900634765627	-862.712036132813	1263.941040039063	498.1130981445315	-752.5469970703127	1278.982177734375	434.3457946777346	-884.6727905273442	1078.806884765625	327.8297729492189	-915.787963867188	1091.54345703125	118.1286773681641	-1079.950439453125	1135.20703125	250.8651885986329	-1096.762329101563	1104.816040039063	199.2098083496095	-1082.417602539063	1106.021240234375	305.5444946289064	-1116.490844726563	1049.748779296875	255.3120880126954	-920.3781738281255	789.2478027343755	56.63795471191409	-869.2678222656255	689.839294433594	78.75786590576175	-805.9697875976567	832.6460571289067	134.7546539306641	-769.8649291992192	732.699157714844	148.4276428222657	-814.1379394531255	582.2996215820315	105.9031600952149	-733.464538574219	621.527282714844	169.2342834472657	-752.823425292969	424.6474914550784	189.5410461425782	-734.971130371094	286.5615844726564	200.5359802246095	-787.5358276367192	343.1942138671876	121.990463256836	-743.4561157226565	128.7052917480469	162.9296569824219	-803.407104492188	99.57169342041021	217.0124359130861	-637.5848388671877	133.2711029052735	211.9519042968751	-660.7589111328127	92.28835296630862	160.2197723388672	-575.1487426757815	92.81668853759768	255.8567962646486	-543.9134521484377	106.2456665039063	213.7701873779298	-600.3736572265627	49.55213165283206	140.488265991211	-1024.678466796875	811.8361816406255	409.2086486816409	-1047.302490234375	702.7469482421877	387.8205566406252	-922.4161987304692	763.6811523437502	315.8939819335939	-956.0869140625005	670.0474853515627	300.1596984863282	-1108.124145507813	572.5903320312502	347.059783935547	-1039.814086914063	513.1169433593752	292.1604309082032	-1295.60498046875	461.7783508300784	279.1002807617189	-1418.995727539063	427.4182739257815	272.2151184082032	-1323.474243164063	509.1372985839846	352.5049133300782	-1541.656982421876	414.307556152344	332.5893554687501	-1585.773071289063	469.4712829589846	276.557830810547	-1523.147338867188	305.9883117675782	300.3045043945314	-1569.669921875001	344.0234680175782	346.8543395996095	-1557.675781250001	236.2180023193361	259.3167724609376	-1542.604492187501	213.1993713378907	301.2972412109376	-1597.251098632813	268.1669006347657	374.6256103515626	
315	1.256	-993.0486450195317	1559.951293945313	243.7059936523439	-938.646362304688	1548.723266601563	400.2764892578127	-1001.455261230469	1545.505859375001	82.94482421875003	-861.7951660156255	1462.403930664063	217.8325805664064	-1066.102172851563	1376.3984375	252.472869873047	-1126.029174804688	1421.909912109375	-3.959452867507936	-1228.052490234375	1328.997436523438	-34.65283203125001	-1186.372680664063	1185.053344726563	-32.09941864013673	-1162.993896484375	1058.903442382813	-24.46103286743165	-954.3179321289067	1379.929931640625	509.8676757812502	-975.5182495117192	1250.989501953125	564.447692871094	-849.6538085937505	1258.365844726563	500.1665954589846	-739.186462402344	1269.753662109375	436.4575805664065	-870.8249511718755	1076.798706054688	328.0255432128907	-902.0586547851567	1089.23486328125	118.2265396118165	-1066.104614257813	1131.895385742188	251.0522613525392	-1082.974975585938	1101.578491210938	199.3843688964845	-1068.623901367188	1102.64794921875	305.7420959472657	-1102.054443359375	1046.187255859375	255.2870635986329	-906.2272949218755	787.5932006835942	58.14592361450198	-855.6999511718755	687.840026855469	79.4699630737305	-791.264282226563	832.1270141601567	134.0431518554688	-755.279479980469	731.1424560546877	147.0381469726563	-801.2966308593755	579.4927978515627	105.8250427246094	-719.4600219726565	618.5394287109377	167.5126647949219	-741.0629882812502	421.0293884277346	189.2956848144532	-725.1546630859377	282.6040344238282	200.2268066406251	-777.5609741210942	339.9352111816407	121.932357788086	-736.2473754882815	124.6573562622071	163.3687286376954	-795.9279785156255	96.49876403808599	217.815399169922	-630.0782470703127	128.3277893066407	211.5330047607423	-659.0657348632815	86.0239181518555	159.3977966308594	-568.2490844726565	87.26028442382815	255.1255187988282	-536.822937011719	100.3840103149415	213.0834808349611	-594.114196777344	44.1606903076172	140.3145751953126	-1007.958984375	808.224243164063	409.030944824219	-1028.752197265625	698.7668457031252	387.8597412109377	-904.7898559570317	761.3900146484377	315.7906188964845	-933.0010375976567	668.5488891601565	304.1840820312501	-1087.27734375	567.8157958984377	347.1083984375001	-1019.035766601563	508.8402099609377	291.7997131347657	-1277.5576171875	460.6860351562502	279.9613647460939	-1400.572631835938	429.8420410156252	272.1582946777345	-1303.388305664063	508.9081726074221	352.2324829101564	-1523.7646484375	420.1429748535159	332.0976867675782	-1566.359252929688	475.6291503906252	275.6270446777345	-1507.751586914063	310.9856567382814	301.0645751953126	-1553.550415039063	350.7595520019532	347.0000610351564	-1543.737792968751	241.9144439697267	261.3618774414064	-1529.280639648438	218.8968963623048	303.5233459472657	-1581.970703125001	276.1524047851564	376.3731079101564	
316	1.26	-978.307250976563	1557.517578125001	242.6543426513673	-924.5512695312505	1545.711547851563	399.9990234375002	-986.5759887695317	1542.134033203126	81.87089538574222	-847.5302734375005	1459.25	217.9432220458986	-1052.371948242188	1373.765502929688	252.123748779297	-1110.25390625	1417.282104492188	-5.312853813171388	-1211.775268554688	1323.791870117188	-36.74549102783205	-1167.9931640625	1180.483520507813	-34.48223114013673	-1143.231689453125	1054.564697265625	-26.51048469543458	-941.9699096679692	1377.163940429688	509.5210876464846	-964.6755981445317	1248.710205078125	564.0970458984377	-837.501831054688	1252.087768554688	501.4121704101565	-726.9696044921877	1259.87548828125	437.6375122070315	-857.101928710938	1074.62060546875	328.3196411132814	-888.9636840820317	1086.81298828125	118.6093673706055	-1052.261474609375	1128.597900390625	251.1539611816407	-1069.296875	1098.031860351563	199.4209747314454	-1055.055053710938	1099.221313476563	305.8897399902345	-1088.201782226563	1042.787475585938	255.3221130371095	-891.9387207031255	785.8939819335942	59.56613540649417	-841.6533813476567	685.967712402344	79.83893585205081	-776.4445190429692	831.641723632813	133.2765808105469	-740.9736938476565	729.502136230469	145.870346069336	-788.2199707031255	576.8392333984377	105.5871963500977	-705.3015136718752	615.1353759765627	165.9630126953126	-729.3082275390627	417.1788635253909	188.9380798339844	-715.7891845703127	278.544158935547	199.8475036621095	-768.1852416992192	336.4185485839845	122.2077255249024	-729.6958007812502	120.7818908691407	163.5724487304688	-789.9612426757817	93.32193756103518	217.9903869628907	-623.4071044921877	122.9971618652344	211.4662322998048	-649.6648559570315	82.5173263549805	161.0635528564454	-561.7786254882815	81.30979156494143	255.0488281250001	-530.5391845703127	94.118766784668	212.8708496093751	-589.2615966796877	38.1999969482422	140.3954315185547	-990.9699096679692	804.3911132812505	408.9968872070315	-1010.102783203125	694.6921997070315	387.9595031738284	-887.1887207031255	759.0667724609377	315.7738037109376	-914.6342773437505	665.5219726562502	303.5648498535157	-1065.963500976563	563.062194824219	347.5393981933595	-998.105346679688	504.4294128417971	291.7369384765626	-1256.992553710938	460.5881958007815	278.5687866210939	-1381.666137695313	432.3752441406252	272.011932373047	-1283.008666992188	508.5855407714846	352.050750732422	-1505.17919921875	425.7168273925784	332.0084533691407	-1546.403564453126	481.7952880859377	274.5857849121095	-1491.60498046875	316.1195678710939	302.1791076660157	-1536.389404296876	357.524139404297	347.6160278320314	-1529.410766601563	247.2371063232423	263.3152770996095	-1515.255615234375	224.5062713623048	305.6805725097657	-1567.977539062501	283.8291931152345	377.2625427246095	
317	1.264	-963.8352661132817	1554.166870117188	241.5616912841798	-910.5339965820317	1542.460937500001	399.5967102050784	-972.362915039063	1538.560302734376	81.52808380126956	-833.2446899414067	1455.794311523438	217.7500000000001	-1038.369506835938	1371.048583984375	251.6770324707032	-1094.26171875	1412.357788085938	-7.147148609161381	-1194.844360351563	1318.335083007813	-39.085994720459	-1150.161987304688	1175.292114257813	-36.21509170532228	-1123.613159179688	1049.823486328125	-28.3584499359131	-929.7014160156255	1374.318115234375	509.1926269531252	-953.859497070313	1246.353759765625	563.7547607421877	-826.569946289063	1245.483276367188	501.5679626464846	-715.6841430664065	1249.724365234375	438.311218261719	-843.4141235351567	1072.35888671875	328.6056213378907	-875.3096313476567	1084.174682617188	118.7040786743165	-1038.706909179688	1124.8525390625	251.3511505126954	-1055.716552734375	1094.669677734375	199.8144531250001	-1041.616577148438	1095.6689453125	305.9794921875001	-1074.566040039063	1038.633178710938	255.4696197509767	-877.3918457031255	784.113159179688	60.84012603759768	-827.6049804687505	683.9243164062502	80.20154571533206	-761.4238891601565	831.1148071289067	132.5419616699219	-726.5018310546877	727.708679199219	144.4851531982422	-774.9479980468755	574.0957031250002	105.0774002075196	-691.2436523437502	611.3901977539065	164.4073181152344	-717.7932739257815	413.2494201660159	188.3872985839844	-706.8964843750002	274.3721008300782	199.600311279297	-758.8472900390627	332.9911193847657	122.2156219482422	-723.7964477539065	116.7674789428712	163.537094116211	-784.9751586914067	90.38708496093753	217.2793731689454	-617.4534912109377	117.3199615478516	211.5107727050782	-648.6668090820315	75.42407989501956	160.2185363769532	-556.5639648437502	74.79071807861331	255.2185516357423	-525.3391113281252	87.06243896484378	212.9962463378907	-584.352478027344	32.18885421752931	140.275863647461	-974.000366210938	800.5913085937505	409.0046997070315	-991.1527709960942	690.460876464844	388.1802673339846	-869.5592651367192	756.6189575195315	315.7812500000001	-895.5266113281255	662.3541259765627	303.7101440429689	-1044.611206054688	558.0216064453127	347.8568420410157	-976.9270019531255	499.9975891113284	291.7225036621095	-1238.164184570313	459.665954589844	279.5825805664064	-1362.266845703125	434.4936523437502	271.7467041015626	-1262.3466796875	508.145202636719	351.9962768554689	-1486.201171875	431.1151428222659	331.707733154297	-1526.046997070313	487.5644226074221	273.6186828613282	-1475.0107421875	321.0164184570314	303.2510986328126	-1518.76318359375	364.0267944335939	348.123504638672	-1514.689453125	252.5166473388673	265.1817932128907	-1501.057983398438	229.9846649169923	307.6971740722657	-1551.977661132813	291.2227783203126	378.6040039062501	
